<?xml version="1.0" encoding="iso-8859-1"?>
<!-- Generator: Adobe Illustrator 19.0.0, SVG Export Plug-In . SVG Version: 6.00 Build 0)  -->
<svg version="1.1" id="Layer_1" xmlns="http://www.w3.org/2000/svg" xmlns:xlink="http://www.w3.org/1999/xlink" x="0px" y="0px"
	 viewBox="0 0 512 512" style="enable-background:new 0 0 512 512;" xml:space="preserve">
<g>
	<circle style="fill:#FFE9F7;" cx="256" cy="62.439" r="62.439"/>
	<circle style="fill:#FFE9F7;" cx="256" cy="168.585" r="106.146"/>
	<path style="fill:#FFE9F7;" d="M393.366,512c27.587,0,49.951-22.364,49.951-49.951c0-103.451-83.866-187.317-187.317-187.317
		S68.683,358.597,68.683,462.049c0,27.587,22.364,49.951,49.951,49.951H393.366z"/>
</g>
<g>
	<polygon style="fill:#F9D9EC;" points="255.999,274.732 255.999,274.732 256,274.732 	"/>
	<path style="fill:#F9D9EC;" d="M362.146,168.585c0-58.623-47.524-106.146-106.146-106.146h-0.001v212.293H256
		C314.623,274.732,362.146,227.208,362.146,168.585z"/>
	<path style="fill:#F9D9EC;" d="M256,274.732L256,274.732L255.999,512h137.367c27.587,0,49.951-22.364,49.951-49.951
		C443.317,358.597,359.451,274.732,256,274.732z"/>
	<path style="fill:#F9D9EC;" d="M340.294,104.103C320.895,78.782,290.364,62.439,256,62.439
		c-58.623,0-106.146,47.524-106.146,106.146c0,2.682,0.132,5.331,0.328,7.962c17.266,6.942,36.117,10.769,55.867,10.769
		C264.869,187.317,315.764,153.421,340.294,104.103z"/>
</g>
<path style="fill:#EDCCE4;" d="M340.294,104.103C320.895,78.782,290.364,62.439,256,62.439v116.325
	C292.838,165.738,323.071,138.733,340.294,104.103z"/>
<g>
</g>
<g>
</g>
<g>
</g>
<g>
</g>
<g>
</g>
<g>
</g>
<g>
</g>
<g>
</g>
<g>
</g>
<g>
</g>
<g>
</g>
<g>
</g>
<g>
</g>
<g>
</g>
<g>
</g>
</svg>
